<svg 
 xmlns="http://www.w3.org/2000/svg"
 xmlns:xlink="http://www.w3.org/1999/xlink"
 width="319px" height="319px">
<path fill-rule="evenodd"  stroke="rgb(136, 136, 136)" stroke-width="10px" stroke-linecap="butt" stroke-linejoin="miter" fill="none"
 d="M156.750,10.577 C237.755,10.577 303.423,76.245 303.423,157.250 C303.423,238.255 237.755,303.923 156.750,303.923 C75.745,303.923 10.077,238.255 10.077,157.250 C10.077,76.245 75.745,10.577 156.750,10.577 Z"/>
<path fill-rule="evenodd"  stroke="rgb(136, 136, 136)" stroke-width="7px" stroke-linecap="butt" stroke-linejoin="miter" fill="none"
 d="M141.739,128.631 L166.812,128.631 C170.659,128.631 173.777,131.750 173.777,135.596 C173.777,135.596 173.777,139.978 173.777,146.856 C173.777,147.665 173.291,150.112 173.777,149.384 C191.577,122.763 220.149,129.894 225.317,132.810 C229.279,135.046 243.703,148.544 243.426,166.242 C243.380,169.184 243.321,227.149 243.426,237.283 C222.632,237.455 216.747,236.951 204.423,237.283 C203.585,238.036 203.906,235.795 203.864,231.632 C203.671,212.475 202.386,168.346 201.637,166.242 C195.832,149.937 173.777,171.208 173.777,173.207 C173.777,200.157 173.777,230.318 173.777,230.318 C173.777,234.165 170.659,237.283 166.812,237.283 L141.739,237.283 C137.892,237.283 134.774,234.165 134.774,230.318 L134.774,135.596 C134.774,131.750 137.892,128.631 141.739,128.631 Z"/>
<path fill-rule="evenodd"  stroke="rgb(136, 136, 136)" stroke-width="7px" stroke-linecap="butt" stroke-linejoin="miter" fill="none"
 d="M110.272,237.283 L79.876,237.283 C77.115,237.283 74.876,235.045 74.876,232.283 L74.876,132.238 C74.876,129.477 77.115,127.238 79.876,127.238 L110.272,127.238 C113.034,127.238 115.272,129.477 115.272,132.238 L115.272,232.283 C115.272,235.045 113.034,237.283 110.272,237.283 ZM95.597,113.483 C84.826,113.483 76.095,104.752 76.095,93.981 C76.095,83.211 84.826,74.479 95.597,74.479 C106.367,74.479 115.098,83.211 115.098,93.981 C115.098,104.752 106.367,113.483 95.597,113.483 Z"/>
</svg>