<svg 
 xmlns="http://www.w3.org/2000/svg"
 xmlns:xlink="http://www.w3.org/1999/xlink"
 width="311.5px" height="311.5px">
<path fill-rule="evenodd"  stroke="rgb(136, 136, 136)" stroke-width="12px" stroke-linecap="butt" stroke-linejoin="miter" fill="none"
 d="M154.250,7.077 C235.255,7.077 300.923,72.745 300.923,153.750 C300.923,234.755 235.255,300.423 154.250,300.423 C73.245,300.423 7.577,234.755 7.577,153.750 C7.577,72.745 73.245,7.077 154.250,7.077 Z"/>
<path fill-rule="evenodd"  stroke="rgb(136, 136, 136)" stroke-width="12px" stroke-linecap="butt" stroke-linejoin="miter" fill="none"
 d="M193.500,293.500 C193.500,293.500 195.892,221.500 181.500,221.500 C175.125,221.500 198.167,221.167 212.500,213.500 C231.500,205.167 270.875,159.167 234.500,106.500 C235.458,104.167 259.542,34.500 191.500,82.500 C191.792,82.167 148.875,70.500 116.500,81.500 "/>
<path fill-rule="evenodd"  stroke="rgb(136, 136, 136)" stroke-width="12px" stroke-linecap="butt" stroke-linejoin="miter" fill="none"
 d="M113.500,293.500 C113.500,293.500 111.108,221.500 125.500,221.500 C131.875,221.500 108.833,221.167 94.500,213.500 C75.500,205.167 36.125,159.167 72.500,106.500 C71.542,104.167 47.458,34.500 115.500,82.500 C115.208,82.167 158.125,70.500 190.500,81.500 "/>
</svg>