<svg 
 xmlns="http://www.w3.org/2000/svg"
 xmlns:xlink="http://www.w3.org/1999/xlink"
 width="319px" height="319px">
<path fill-rule="evenodd"  stroke="rgb(136, 136, 136)" stroke-width="10px" stroke-linecap="butt" stroke-linejoin="miter" fill="none"
 d="M156.750,10.577 C237.755,10.577 303.423,76.245 303.423,157.250 C303.423,238.255 237.755,303.923 156.750,303.923 C75.745,303.923 10.077,238.255 10.077,157.250 C10.077,76.245 75.745,10.577 156.750,10.577 Z"/>
<path fill-rule="evenodd"  stroke="rgb(136, 136, 136)" stroke-width="10px" stroke-linecap="butt" stroke-linejoin="miter" fill="none"
 d="M76.088,80.505 C76.088,80.505 110.171,53.895 131.865,70.447 C160.270,92.117 173.024,134.284 151.067,149.083 C141.188,155.742 160.287,166.110 161.126,165.542 C167.592,161.170 171.856,157.166 177.585,153.655 C193.672,143.797 214.303,158.027 217.817,160.970 C221.332,163.914 239.763,176.515 239.763,176.515 C239.763,176.515 253.164,190.031 246.163,211.262 C239.163,232.492 232.590,242.836 224.218,244.179 C215.846,245.522 173.156,252.895 127.294,219.491 C81.431,186.087 73.945,145.455 70.602,132.625 C67.259,119.795 66.030,97.878 66.030,97.878 C66.030,97.878 70.145,83.248 76.088,80.505 Z"/>
</svg>