<svg 
 xmlns="http://www.w3.org/2000/svg"
 xmlns:xlink="http://www.w3.org/1999/xlink"
 width="319px" height="319px">
<path fill-rule="evenodd"  stroke="rgb(136, 136, 136)" stroke-width="10px" stroke-linecap="butt" stroke-linejoin="miter" fill="none"
 d="M156.750,10.577 C237.755,10.577 303.423,76.245 303.423,157.250 C303.423,238.255 237.755,303.923 156.750,303.923 C75.745,303.923 10.077,238.255 10.077,157.250 C10.077,76.245 75.745,10.577 156.750,10.577 Z"/>
<path fill-rule="evenodd"  fill="rgb(136, 136, 136)"
 d="M122.000,209.000 L126.000,181.000 L214.000,102.000 C214.000,102.000 213.906,98.156 210.000,101.000 C206.094,103.844 109.000,163.000 109.000,163.000 L122.000,209.000 Z"/>
<path fill-rule="evenodd"  stroke="rgb(136, 136, 136)" stroke-width="10px" stroke-linecap="butt" stroke-linejoin="miter" fill="none"
 d="M120.000,235.000 L152.000,204.000 L208.000,244.000 C208.000,244.000 212.406,248.906 214.000,243.000 C215.594,237.094 250.000,73.000 250.000,73.000 C250.000,73.000 251.406,67.656 243.000,71.000 C234.594,74.344 36.000,146.000 36.000,146.000 C36.000,146.000 30.906,149.406 39.000,152.000 C47.094,154.594 91.000,169.000 91.000,169.000 C91.000,169.000 93.656,167.656 95.000,172.000 C96.344,176.344 115.000,230.000 115.000,230.000 C115.000,230.000 115.750,236.000 120.000,235.000 Z"/>
</svg>