<svg 
 xmlns="http://www.w3.org/2000/svg"
 xmlns:xlink="http://www.w3.org/1999/xlink"
 width="319px" height="319px">
<path fill-rule="evenodd"  stroke="rgb(136, 136, 136)" stroke-width="10px" stroke-linecap="butt" stroke-linejoin="miter" fill="none"
 d="M156.750,10.577 C237.755,10.577 303.423,76.245 303.423,157.250 C303.423,238.255 237.755,303.923 156.750,303.923 C75.745,303.923 10.077,238.255 10.077,157.250 C10.077,76.245 75.745,10.577 156.750,10.577 Z"/>
<path fill-rule="evenodd"  stroke="rgb(136, 136, 136)" stroke-width="10px" stroke-linecap="butt" stroke-linejoin="miter" fill="none"
 d="M59.680,119.762 C65.929,137.706 83.435,210.878 159.275,210.878 C162.731,210.878 170.429,214.428 170.429,194.767 C170.429,191.735 175.900,180.133 185.300,191.049 C194.700,201.965 196.454,203.442 196.454,203.442 C196.454,203.442 202.138,212.465 215.044,212.117 C227.949,211.769 237.351,210.878 237.351,210.878 C237.351,210.878 258.372,213.303 242.308,192.289 C226.244,171.274 220.001,168.742 220.001,168.742 C220.001,168.742 211.894,164.758 222.479,151.392 C233.064,138.026 243.547,122.888 243.547,122.888 C243.547,122.888 259.620,103.741 236.112,104.298 C224.449,104.575 214.239,103.714 207.608,104.298 C202.457,104.752 202.005,111.888 198.933,119.170 C190.438,139.304 184.061,143.956 184.061,143.956 L179.104,150.152 C179.104,150.152 168.402,163.180 169.190,142.717 C169.977,122.254 169.190,114.213 169.190,114.213 C169.190,114.213 171.939,103.899 160.514,103.059 C149.090,102.219 130.771,101.820 130.771,101.820 C130.771,101.820 114.284,107.261 122.096,110.495 C129.908,113.729 130.355,115.660 130.771,119.170 C131.187,122.680 129.532,147.674 129.532,147.674 C129.532,147.674 130.103,166.590 114.660,142.717 C99.217,118.844 99.789,116.691 99.789,116.691 C99.789,116.691 100.029,107.072 84.917,106.777 C69.805,106.482 63.849,106.777 63.849,106.777 C63.849,106.777 55.300,107.185 59.680,119.762 Z"/>
</svg>